<?xml version="1.0" encoding="utf-8"?>
<!-- Generator: Adobe Illustrator 19.2.1, SVG Export Plug-In . SVG Version: 6.00 Build 0)  -->
<svg version="1.1" id="Layer_1" xmlns="http://www.w3.org/2000/svg" xmlns:xlink="http://www.w3.org/1999/xlink" x="0px" y="0px"
	 viewBox="0 0 708.3 255.3" style="enable-background:new 0 0 708.3 255.3;" xml:space="preserve">
<style type="text/css">
	.st0{fill:#D71921;}
</style>
<path class="st0" d="M320.9,61.5c-5.2-2.3-10.4-3.3-17.3-3.3c-16,0-22.4,11.3-22.4,22.6c0,10.6,6.8,15.6,14.9,15.6
	c2.1,0,4.1-0.3,6.3-1l2.7-11.8h-9.5l2.3-11.3H323l-7.1,33.3c-6,1.8-15.7,2.7-20.8,2.7c-19.2,0-30.3-11.4-30.3-27.8
	c0-19.9,11.9-34,39.6-34c7.3,0,13.4,1.2,19.9,2.9L320.9,61.5z"/>
<path class="st0" d="M362.9,80.6c0-4.8-1.9-8.8-7.5-8.8c-6.7,0-10.3,4.5-11.4,8.8H362.9z M367,105.7c-5.4,1.6-11.1,2.5-15.6,2.5
	c-14.9,0-22.9-9.2-22.9-20.4c0-10.4,6.8-26.3,26.7-26.3c11.7,0,20.5,5.9,20.5,19.4c0,1.8-0.5,5.7-1.1,8.4H343
	c0.2,4.8,2.6,8.6,12,8.6c4.1,0,9.7-1,13.9-3.1L367,105.7z"/>
<path class="st0" d="M385.5,74.2c0.8-3.9,1.5-7.6,1.9-11.6h13.7l-1.7,8.1l0.2-0.1c3.8-5.7,9.5-9.1,15.7-9.1c5.2,0,10.5,3,11.7,9.1
	c3.8-5.7,9.5-9.1,15.9-9.1c6.8,0,13.9,3.3,13.9,13.3c0,2.9-0.3,6.9-1,10l-4.6,22.3h-15.4l4.4-21.6c0.5-2.3,0.9-4.7,0.9-6.5
	c0-2.9-1.4-4.6-5-4.6c-6.4,0-8.1,7.4-9.2,12.2l-4.4,20.5h-15.3l4.4-21.6c0.5-2.3,0.9-4.7,0.9-6.5c0-2.9-1.4-4.6-5-4.6
	c-6.4,0-8.1,7.4-9.2,12.2l-4.4,20.5h-15.4L385.5,74.2z"/>
<path class="st0" d="M495.9,80.6c0-4.8-1.9-8.8-7.5-8.8c-6.7,0-10.3,4.5-11.4,8.8H495.9z M500,105.7c-5.4,1.6-11.1,2.5-15.6,2.5
	c-14.9,0-22.9-9.2-22.9-20.4c0-10.4,6.8-26.3,26.7-26.3c11.7,0,20.5,5.9,20.5,19.4c0,1.8-0.5,5.7-1.1,8.4H476
	c0.2,4.8,2.6,8.6,12,8.6c4.1,0,9.7-1,13.9-3.1L500,105.7z"/>
<path class="st0" d="M548.2,80.6c0-4.8-1.9-8.8-7.5-8.8c-6.7,0-10.3,4.5-11.4,8.8H548.2z M552.3,105.7c-5.4,1.6-11.1,2.5-15.6,2.5
	c-14.9,0-22.9-9.2-22.9-20.4c0-10.4,6.8-26.3,26.7-26.3c11.7,0,20.5,5.9,20.5,19.4c0,1.8-0.5,5.7-1.1,8.4h-31.6
	c0.2,4.8,2.6,8.6,12,8.6c4.1,0,9.7-1,13.9-3.1L552.3,105.7z"/>
<path class="st0" d="M570.9,74.2c0.8-3.9,1.5-7.6,1.9-11.6h14.3l-1.2,7.3h0.2c4.4-5,9.1-8.3,17.2-8.3c9,0,13.9,6.7,13.9,15.4
	c0,3-0.3,4.7-1.2,9.4l-4.1,20.8H596l4.3-20.9c0.4-2.2,1-4.5,1-6.8c0-2.7-1.7-5.3-6-5.1c-6.5,0-10.4,5.6-11.5,12.2l-4.4,20.5H564
	L570.9,74.2z"/>
<path class="st0" d="M626.6,62.6h8.8l2.1-9.6l16.3-4.4l-3.1,14h10.6l-1.9,10.8h-11.2l-2.7,12.4c-0.7,3.3-1.3,5.6-1.3,7.7
	c0,3,2,5,5.1,5c1.6,0,3.3-0.7,5-1.3l-1.7,10.2c-3.3,0.5-6.5,0.9-9.6,0.9c-7.9,0-14.1-3.9-14.1-13.2c0-2.2,0.3-4.5,1.4-9.2l2.7-12.5
	h-8.2L626.6,62.6z"/>
<path class="st0" d="M695.5,80.6c0-4.8-1.9-8.8-7.5-8.8c-6.7,0-10.3,4.5-11.4,8.8H695.5z M699.6,106.8c-5.4,1.6-11.1,2.5-15.6,2.5
	c-14.9,0-22.9-9.2-22.9-20.4c0-10.4,6.8-26.3,26.7-26.3c11.7,0,20.5,5.9,20.5,19.4c0,1.8-0.5,5.7-1.1,8.4h-31.6
	c0.2,4.8,2.6,8.5,12,8.5c4.1,0,9.7-1,13.9-3.1L699.6,106.8z"/>
<polygon class="st0" points="262.1,117.2 304.1,117.2 301.8,128.5 275.6,128.5 272.8,140.8 297.7,140.8 295.2,152.1 270.4,152.1 
	267.5,165.6 294.8,165.6 292.5,176.9 249.3,176.9 "/>
<path class="st0" d="M307.8,144c0.8-3.9,1.4-7.6,1.9-11.6h13.7l-1.7,8.1l0.2-0.1c3.8-5.6,9.5-9.1,15.7-9.1c5.2,0,10.5,3,11.7,9.1
	c3.8-5.6,9.5-9.1,15.9-9.1c6.8,0,13.9,3.3,13.9,13.3c0,2.9-0.3,6.8-1,10l-4.6,22.3h-15.4l4.5-21.6c0.5-2.3,0.9-4.7,0.9-6.5
	c0-2.9-1.4-4.6-5-4.6c-6.4,0-8.1,7.4-9.2,12.2l-4.4,20.5h-15.4l4.5-21.6c0.5-2.3,0.9-4.7,0.9-6.5c0-2.9-1.4-4.6-5-4.6
	c-6.4,0-8.1,7.4-9.2,12.2l-4.4,20.5h-15.4L307.8,144z"/>
<path class="st0" d="M388.6,144c0.8-3.9,1.4-7.6,1.9-11.6h13.7l-1.7,8.1l0.2-0.1c3.8-5.6,9.5-9.1,15.7-9.1c5.2,0,10.5,3,11.7,9.1
	c3.8-5.6,9.5-9.1,15.9-9.1c6.8,0,13.9,3.3,13.9,13.3c0,2.9-0.3,6.8-1,10l-4.6,22.3h-15.4l4.4-21.6c0.5-2.3,0.9-4.7,0.9-6.5
	c0-2.9-1.4-4.6-5-4.6c-6.4,0-8.1,7.4-9.2,12.2l-4.4,20.5h-15.4l4.5-21.6c0.5-2.3,0.8-4.7,0.8-6.5c0-2.9-1.4-4.6-5-4.6
	c-6.4,0-8.1,7.4-9.2,12.2l-4.4,20.5h-15.4L388.6,144z"/>
<path class="st0" d="M499,150.4c0-4.8-1.9-8.8-7.5-8.8c-6.7,0-10.3,4.5-11.4,8.8H499z M503.1,175.5c-5.4,1.6-11.1,2.5-15.6,2.5
	c-14.9,0-22.9-9.1-22.9-20.4c0-10.3,6.8-26.3,26.7-26.3c11.7,0,20.5,5.9,20.5,19.4c0,1.8-0.5,5.7-1.1,8.4h-31.6
	c0.2,4.8,2.6,8.6,12,8.6c4.1,0,9.7-1,14-3.1L503.1,175.5z"/>
<path class="st0" d="M521.6,144c0.8-3.9,1.5-7.6,1.9-11.6h14.3l-1.2,7.3h0.2c4.4-5,9.1-8.3,17.2-8.3c9,0,13.9,6.7,13.9,15.4
	c0,3-0.3,4.7-1.2,9.4l-4.1,20.8h-15.9l4.3-20.9c0.4-2.2,1-4.4,1-6.8c0-2.7-1.7-5.3-6-5.1c-6.5,0-10.4,5.6-11.5,12.2l-4.4,20.5h-15.4
	L521.6,144z"/>
<polygon class="st0" points="47,79.6 78.2,126.6 68.6,132.9 37.4,85.9 "/>
<polygon class="st0" points="53.4,89.2 6.3,120.3 0,110.8 47,79.6 "/>
<polygon class="st0" points="49.5,96.2 37.9,153.2 26.7,151 38.2,93.9 "/>
<polygon class="st0" points="124.4,89.3 155.6,136.3 146,142.6 114.8,95.6 "/>
<polygon class="st0" points="130.8,98.9 83.8,130 77.4,120.4 124.4,89.3 "/>
<polygon class="st0" points="126.9,105.9 115.3,162.9 104.1,160.7 115.6,103.6 "/>
<polygon class="st0" points="201.8,99 233,146 223.4,152.4 192.3,105.4 "/>
<polygon class="st0" points="208.2,108.6 161.2,139.8 154.8,130.2 201.8,99 "/>
<polygon class="st0" points="204.3,115.6 192.8,172.7 181.5,170.4 193.1,113.4 "/>
<polygon class="st0" points="82.9,133.8 79.7,129 32.6,160.2 35.8,165 "/>
<polygon class="st0" points="79.7,129 74.9,132.2 106.1,179.3 110.9,176.1 "/>
<polygon class="st0" points="81.2,136.1 75.5,135 61.6,203.8 67.2,204.9 "/>
<polygon class="st0" points="160.3,143.4 157.1,138.6 110.1,169.8 113.2,174.6 "/>
<polygon class="st0" points="157.1,138.7 152.3,141.8 183.5,188.9 188.3,185.7 "/>
<polygon class="st0" points="158.6,145.8 152.9,144.7 139,213.4 144.6,214.6 "/>
<rect x="41.5" y="55" transform="matrix(0.8337 -0.5522 0.5522 0.8337 -20.3916 48.1653)" class="st0" width="56.5" height="5.8"/>
<polygon class="st0" points="91.7,39.9 86.9,43.1 118.1,90.2 122.9,87 "/>
<rect x="48.3" y="78" transform="matrix(0.199 -0.98 0.98 0.199 -12.4774 146.5323)" class="st0" width="70.2" height="5.8"/>
<polygon class="st0" points="172.3,54.4 169.2,49.6 122.1,80.7 125.3,85.6 "/>
<polygon class="st0" points="169.1,49.6 164.3,52.8 195.5,99.8 200.3,96.7 "/>
<polygon class="st0" points="170.6,56.7 165,55.6 151,124.3 156.6,125.5 "/>
<polygon class="st0" points="138.4,3.2 136.3,0 89.3,31.1 91.4,34.3 "/>
<polygon class="st0" points="137.2,5.5 133.4,4.7 118.9,75.9 122.7,76.7 "/>
<polygon class="st0" points="136.3,0 133.1,2.1 164.3,49.1 167.5,47 "/>
<polygon class="st0" points="114.7,181.8 112.6,178.6 65.5,209.7 67.6,212.9 "/>
<polygon class="st0" points="113.4,184.1 109.6,183.3 95.2,254.5 98.9,255.3 "/>
<polygon class="st0" points="112.6,178.6 109.4,180.7 140.5,227.7 143.7,225.6 "/>
</svg>
