<svg xmlns="http://www.w3.org/2000/svg" width="161" height="30" viewBox="0 0 161 30"><title>jumbo</title><path d="M19.39.55H6.83V20.71c0,2.29-1.45,3.58-4.31,3.58A6,6,0,0,1,0,23.61v2.87A14.25,14.25,0,0,1,2.53,28.9,13.41,13.41,0,0,0,8.18,30c6.16,0,13.74-2.9,13.74-7.58V3Zm70.13,0H77.64L72,10.74,68.11,2.94,65.59.55,52.42.52V27l2.53,2.42h5.18V16.58L65.28,27l2.53,2.42h4L77,19.16V27l2.49,2.42H92V2.94Zm67.13,6.42-1.89-1.81a18.26,18.26,0,0,0-13-5.13C132.48,0,125,6.16,125,13.77a12.48,12.48,0,0,0,4.24,9.16l2.42,2.35A18.44,18.44,0,0,0,144.27,30C153.53,30,161,23.81,161,16.19a12.49,12.49,0,0,0-4.34-9.26m-14.91,18h-.27c-.74-2-1-5.06-1-8.74,0-6.52.74-11.16,3.77-11.16h.27a27.48,27.48,0,0,1,1,8.74c0,6.48-.81,11.16-3.8,11.16Zm-18.32-8.52L121,14.13v0a4.46,4.46,0,0,0,3.2-4.68,4.9,4.9,0,0,0-1.48-3.68L120.3,3.42C118.07,1.19,113.46.58,108,.58H94.1V27l2.53,2.42h14c10.24,0,14.61-2.94,14.65-7.81-.07-2-.3-3.9-1.82-5.23M109.12,5.52c.37,0,.61-.06,1-.06a6.91,6.91,0,0,1,2.09.29A4,4,0,0,1,112.35,7a3.67,3.67,0,0,1-2.05,3.16,4,4,0,0,1-1.18.45V5.52m1.82,17.68a5,5,0,0,1-1.82,1V15.77a5.16,5.16,0,0,1,2.93.52,5.75,5.75,0,0,1,.71,2.84,5.25,5.25,0,0,1-1.82,4.06ZM47.88.55H42.76V20.35c0,1.9-.71,4.35-3.33,4.35a2.84,2.84,0,0,1-.54,0,7.18,7.18,0,0,1-.27-1.87V3L36.09.58H23.63V18.35a8.51,8.51,0,0,0,2.22,6.23l.27.26,2,1.87C30,28.87,33.4,30,38.31,30c9.33,0,12.09-3.1,12.09-9.26V3L47.88.55Z"/><path d="M0,23.61a5.89,5.89,0,0,0,2.53.68c2.86,0,4.31-1.26,4.31-3.58V.55H19.39V19.94c0,4.68-7.58,7.58-13.74,7.58A13.53,13.53,0,0,1,0,26.45ZM52.42,27V.52l13.16,0L71.27,12,77.64.52H89.52V27H77V11.74L69.32,27h-4L57.61,11.52V27ZM94,27V.55H108c7.64,0,13.67,1.23,13.67,6.45,0,2.68-1.21,4.65-5.62,5.23,6,.74,6.67,3.71,6.63,7,0,4.87-4.41,7.81-14.65,7.81H94m12.56-2.58a5.29,5.29,0,0,0,6.16-5.26,5.68,5.68,0,0,0-2.29-4.68,5.12,5.12,0,0,0-3.87-1.1v11m0-13.55a7.67,7.67,0,0,0,3.7-.71A3.73,3.73,0,0,0,112.35,7c0-2.45-1.68-4-4.78-4-.37,0-.61.06-1,.06ZM125,13.77C125,6.16,132.48,0,141.74,0s16.73,6.16,16.73,13.77S151,27.55,141.74,27.55,125,21.35,125,13.77m16.73,11.16c3,0,3.77-4.65,3.77-11.16s-.77-11.16-3.77-11.16S138,7.26,138,13.77,138.71,24.94,141.74,24.94ZM39.43,24.71c-2.59,0-3.33-2.42-3.33-4.32V.58H23.63V18.35c0,6.06,3.87,9.26,12.19,9.26,9.33,0,12.09-3.1,12.09-9.26V.55H42.76V20.35c0,1.9-.71,4.35-3.33,4.35Z" style="fill:#fdb927"/><path d="M0,23.61a5.89,5.89,0,0,0,2.53.68c2.86,0,4.31-1.26,4.31-3.58V.55H19.39V19.94c0,4.68-7.58,7.58-13.74,7.58A13.53,13.53,0,0,1,0,26.45ZM52.42,27V.52l13.16,0L71.27,12,77.64.52H89.52V27H77V11.74L69.32,27h-4L57.61,11.52V27ZM94,27V.55H108c7.64,0,13.67,1.23,13.67,6.45,0,2.68-1.21,4.65-5.62,5.23,6,.74,6.67,3.71,6.63,7,0,4.87-4.41,7.81-14.65,7.81H94m12.56-2.58a5.29,5.29,0,0,0,6.16-5.26,5.68,5.68,0,0,0-2.29-4.68,5.12,5.12,0,0,0-3.87-1.1v11m0-13.55a7.67,7.67,0,0,0,3.7-.71A3.73,3.73,0,0,0,112.35,7c0-2.45-1.68-4-4.78-4-.37,0-.61.06-1,.06ZM125,13.77C125,6.16,132.48,0,141.74,0s16.73,6.16,16.73,13.77S151,27.55,141.74,27.55,125,21.35,125,13.77m16.73,11.16c3,0,3.77-4.65,3.77-11.16s-.77-11.16-3.77-11.16S138,7.26,138,13.77,138.71,24.94,141.74,24.94ZM39.43,24.71c-2.59,0-3.33-2.42-3.33-4.32V.58H23.63V18.35c0,6.06,3.87,9.26,12.19,9.26,9.33,0,12.09-3.1,12.09-9.26V.55H42.76V20.35c0,1.9-.71,4.35-3.33,4.35Z" style="fill:#ffc425"/></svg>