<svg xmlns="http://www.w3.org/2000/svg" width="94.52" height="78.84" viewBox="0 0 94.52 78.84"><title>kantelsimulator</title><path d="M47,62.18,12.8,28,5.47,42.71,32.34,69.54Zm-16.9-39a5.17,5.17,0,1,0-1.54,3.72,5.16,5.16,0,0,0,1.54-3.72ZM57,50a5.09,5.09,0,1,0-1.49,3.67A5,5,0,0,0,57,50ZM.64,40.42l9.64-19.75L29.88,1A3.33,3.33,0,0,1,34.59.89L34.7,1l2.53,2.52a3.33,3.33,0,0,1,.11,4.71l-.11.11L34.7,10.9,64.1,40.25l2.52-2.53a3.33,3.33,0,0,1,4.71-.11l.11.11L74,40.24a3.33,3.33,0,0,1,.11,4.71l-.11.11L54.37,64.7,34.64,74.36q-3.1,1.72-6-1.14L1.8,46.38Q-1.07,43.52.64,40.42Z" transform="translate(0 0.03)" style="fill:#fff"/><path d="M69.28,14.46a29.68,29.68,0,0,1,2,57.3" transform="translate(0 0.03)" style="fill:none;stroke:#fff;stroke-linecap:square;stroke-width:4.477px"/><polyline points="72.41 23.04 68.06 13.67 77.44 9.32" style="fill:none;stroke:#fff;stroke-linecap:round;stroke-linejoin:round;stroke-width:4.477122783660889px"/><polyline points="79.65 76.46 70.05 72.17 73.86 61.37" style="fill:none;stroke:#fff;stroke-linecap:round;stroke-linejoin:round;stroke-width:4.750345177429722px"/></svg>