<?xml version="1.0" encoding="utf-8"?>
<!-- Generator: Adobe Illustrator 19.2.1, SVG Export Plug-In . SVG Version: 6.00 Build 0)  -->
<svg version="1.1" id="Isolation_Mode" xmlns="http://www.w3.org/2000/svg" xmlns:xlink="http://www.w3.org/1999/xlink" x="0px"
	 y="0px" viewBox="0 0 94 16" style="enable-background:new 0 0 94 16;" xml:space="preserve">
<style type="text/css">
	.st0{fill:#FFFFFF;}
</style>
<path class="st0" d="M79.8,9.8c0-0.2,0.1-0.3,0.3-0.3h9.2c0.8,0,1.5-0.7,1.5-1.5s-0.7-1.5-1.5-1.5h-9.2c-0.2,0-0.3-0.2-0.3-0.3V5.3
	c0-0.9,0.7-1.7,1.7-1.7h10.9c0.9,0,1.7-0.7,1.7-1.7c0-0.9-0.7-1.7-1.7-1.7H80.8c-2.5,0-4.6,2-4.6,4.6v6.4c0,2.5,2,4.5,4.6,4.6h11.5
	c0.9,0,1.7-0.7,1.7-1.7s-0.7-1.7-1.7-1.7H81.5c-0.9,0-1.7-0.7-1.7-1.7V9.8z M52.6,11.6c0.2,0.1,0.3,0.2,0.3,0.4s-0.2,0.4-0.4,0.4
	H40.6c-0.9,0-1.7,0.7-1.7,1.7s0.7,1.7,1.7,1.7h12.1c2,0,3.7-1.7,3.7-3.7c0-1.6-1-3-2.4-3.5L42.1,4.3c-0.2-0.1-0.3-0.2-0.3-0.4
	c0-0.2,0.2-0.4,0.4-0.4h11.9c0.9,0,1.7-0.7,1.7-1.7c0-0.9-0.7-1.7-1.7-1.7H42c-2.1,0-3.7,1.7-3.7,3.7c0,1.5,0.9,2.9,2.3,3.4
	L52.6,11.6z M64.6,14c0,1,0.8,1.8,1.8,1.8s1.8-0.8,1.8-1.8V3.8c0-0.2,0.2-0.3,0.3-0.3h5.6c0.9,0,1.7-0.7,1.7-1.7S75,0.2,74.1,0.2
	H58.7c-0.9,0-1.7,0.7-1.7,1.7s0.7,1.7,1.7,1.7h5.6c0.2,0,0.3,0.1,0.3,0.3L64.6,14z M23.1,9.8c0-0.2,0.1-0.3,0.3-0.3h9.2
	c0.8,0,1.5-0.7,1.5-1.5s-0.7-1.5-1.5-1.5h-9.2c-0.2,0-0.3-0.2-0.3-0.3V5.1c0-0.9,0.7-1.7,1.7-1.7h10.9c0.9,0,1.7-0.7,1.7-1.7
	c0-0.9-0.7-1.7-1.7-1.7H24.1c-2.5,0-4.5,2-4.5,4.6V11c0,2.5,2,4.5,4.5,4.5h11.5c0.9,0,1.7-0.7,1.7-1.7s-0.7-1.7-1.7-1.7H24.8
	c-0.9,0-1.7-0.7-1.7-1.7C23.1,10.4,23.1,9.8,23.1,9.8z M0.3,0.2h12.9c2.5,0,4.5,2,4.5,4.6V14c0,1-0.8,1.8-1.8,1.8S14.2,15,14.2,14
	V5.1c0-0.9-0.7-1.7-1.7-1.7H3.8c-0.2,0-0.3,0.2-0.3,0.3V14c0,1-0.8,1.8-1.8,1.8C0.8,15.8,0,15,0,14V0.5C0,0.3,0.2,0.2,0.3,0.2z"/>
</svg>
