<?xml version="1.0" encoding="utf-8"?>
<!-- Generator: Adobe Illustrator 19.2.1, SVG Export Plug-In . SVG Version: 6.00 Build 0)  -->
<svg version="1.1" id="svg2" xmlns:svg="http://www.w3.org/2000/svg"
	 xmlns="http://www.w3.org/2000/svg" xmlns:xlink="http://www.w3.org/1999/xlink" x="0px" y="0px" viewBox="0 0 184.9 54.6"
	 style="enable-background:new 0 0 184.9 54.6;" xml:space="preserve">
<style type="text/css">
	.st0{fill:#009E4D;}
	.st1{clip-path:url(#SVGID_2_);}
	.st2{clip-path:url(#SVGID_4_);}
</style>
<g id="g11" transform="matrix(1.25,0,0,-1.25,-511.80125,157.815)">
	<g id="g2510" transform="translate(1.4705494,-0.9803663)">
		<path id="path53" class="st0" d="M424.9,120.8c-3.4,1.5-5.4,2.1-7.4,2.1c-2.1,0-3.4-0.8-3.4-1.9c0-3.5,11.9-2.5,11.9-10.6
			c0-4.5-3.8-7.1-9-7.1c-4.1,0-6.1,1.1-8.4,2.3v5c3.3-2.2,5.4-3,8-3c2.2,0,3.4,0.8,3.4,2.1c0,3.8-11.9,2.4-11.9,10.8
			c0,4,3.5,6.7,8.9,6.7c2.6,0,5-0.5,7.9-1.8V120.8"/>
		<path id="path55" class="st0" d="M441.5,104.3c-2-0.7-3.7-1.1-5.3-1.1c-5.5,0-9.1,3.2-9.1,8.1c0,4.8,3.7,8.2,8.9,8.2
			c1.6,0,3.7-0.4,5.3-1v-3.7c-1.3,0.7-2.8,1.1-4,1.1c-3,0-4.9-1.8-4.9-4.5c0-2.8,1.9-4.6,4.7-4.6c1.2,0,2.3,0.3,4.4,1.1V104.3"/>
		<path id="path57" class="st0" d="M484.7,113.2c0.2,2.2,1.5,3.5,3.4,3.5s3.2-1.3,3.4-3.5H484.7z M487.8,119.6
			c-4.9,0-8.3-3.4-8.3-8.3s3.6-8.1,9.1-8.1c1.2,0,4.2,0,7,2.1v3.1c-2.3-1.7-3.9-2.2-5.8-2.2c-3.1,0-5,1.6-5.2,4.4h11.3
			C496.2,116.4,492.4,119.6,487.8,119.6"/>
		<path id="path59" class="st0" d="M497.8,103.6h5v15.8h-5V103.6z"/>
		<path id="path61" class="st0" d="M516.6,107.9c-1-0.9-1.9-1.3-2.9-1.3c-2.3,0-3.8,1.9-3.8,4.8c0,3.2,1.5,5,4,5
			c0.9,0,2.1-0.4,2.8-0.9v-7.6H516.6z M516.6,126.9v-8.2c-1.3,0.6-2.7,1-4.1,1c-4.5,0-7.6-3.3-7.6-8.2c0-4.7,3.1-8.2,7.4-8.2
			c1.7,0,3,0.4,4.4,1.6v-1.3h4.9v23.3L516.6,126.9"/>
		<path id="path63" class="st0" d="M528.8,113.2c0.2,2.2,1.5,3.5,3.4,3.5c1.9,0,3.2-1.3,3.4-3.5H528.8z M531.9,119.6
			c-4.9,0-8.3-3.4-8.3-8.3s3.6-8.1,9.1-8.1c1.2,0,4.2,0,7,2.1v3.1c-2.3-1.7-3.9-2.2-5.8-2.2c-3.1,0-5,1.6-5.2,4.4H540
			C540.3,116.4,536.5,119.6,531.9,119.6"/>
		<g id="g65">
			<g>
				<g>
					<defs>
						<polyline id="SVGID_1_" points="408,127.2 408,83.5 555.8,83.5 555.8,127.2 						"/>
					</defs>
					<clipPath id="SVGID_2_">
						<use xlink:href="#SVGID_1_"  style="overflow:visible;"/>
					</clipPath>
					<g id="g67" class="st1">
						<path id="path73" class="st0" d="M547.5,114.8L547.5,114.8c1.5,3.3,3.2,4.8,5.1,4.8c1,0,1.8-0.4,3.3-1.4l-1.4-4.4
							c-1.3,0.8-2.2,1.2-2.9,1.2c-1.8,0-3-1.7-4.1-4.6v-6.8h-5v15.8h5V114.8"/>
						<path id="path75" class="st0" d="M503,126c0.5-1.2-0.4-2.9-1.9-3.8s-3.1-0.6-3.5,0.6c-0.5,1.2,0.4,2.9,1.9,3.8
							S502.6,127.2,503,126"/>
					</g>
				</g>
			</g>
		</g>
		<path id="path77" class="st0" d="M459.3,113.6c0,4.3-2.9,6-5.8,6c-1.9,0-3.6-0.8-5-2.6h-0.1v9.9h-5v-23.3h5v10
			c1.2,1.7,2.1,2.4,3.3,2.4c1.5,0,2.6-1.1,2.6-3.5V107c1.7,0.9,3.4,1.4,5,1.6V113.6"/>
		<path id="path79" class="st0" d="M471.8,119.6c-2,0-3.6-0.8-5.1-2.6v2.3h-5v-10.7c1.7-0.2,3.9-1,5-2.3v7.4c1.3,2,2.2,2.6,3.5,2.6
			c1.4,0,2.5-0.9,2.5-3.2v-9.6h5v10C477.5,118.2,474.2,119.6,471.8,119.6"/>
		<path id="path81" class="st0" d="M480.2,99.1h-5.8V95h5.6v-1.8h-5.6V89h5.9v-1.8h-7.7v13.6h7.7v-1.7"/>
		<path id="path83" class="st0" d="M484.9,87.2h1.8v13.6h-1.8V87.2z"/>
		<path id="path85" class="st0" d="M495.4,94.8c1.2,0,2-0.9,2.1-2.2H493C493.3,94,494.1,94.8,495.4,94.8z M493,91.5h6.3
			c0,3.3-1.5,4.9-3.9,4.9c-2.5,0-4.2-1.8-4.2-4.5c0-2.5,1.5-4.8,4.3-4.8c1.5,0,2.5,0.3,3.6,1.1v1.7c-1-0.7-2.1-1.1-3.1-1.1
			C494.3,88.8,493.3,89.7,493,91.5"/>
		<path id="path87" class="st0" d="M510.8,93.8c-1,0.7-1.7,0.9-2.5,0.9c-1.6,0-2.7-1.2-2.7-3.1c0-1.8,1.2-3,3-3
			c0.8,0,1.5,0.2,2.4,0.6v-1.7c-0.6-0.3-1.7-0.5-2.7-0.5c-2.7,0-4.5,1.8-4.5,4.5c0,3,1.7,4.8,4.4,4.8c1,0,1.7-0.2,2.6-0.6V93.8"/>
		<path id="path89" class="st0" d="M518.8,96.2h2.8v-1.6h-2.8V90c0-1.1,0.8-1.4,1.3-1.4c0.6,0,1.3,0.2,2,0.7v-1.7
			c-0.6-0.3-1.6-0.6-2.2-0.6c-1.9,0-2.9,1.2-2.9,2.8v4.7h-1.6v0.2l3.3,3.2L518.8,96.2"/>
		<path id="path91" class="st0" d="M528.4,96.2v-2.1l0,0c0.9,1.6,1.8,2.2,2.6,2.2c0.7,0,1.4-0.3,2.1-1l-0.9-1.6
			c-0.5,0.5-1.2,0.9-1.7,0.9c-1.2,0-2.2-1.2-2.2-2.8v-4.7h-1.7v9L528.4,96.2"/>
		<path id="path93" class="st0" d="M551.2,93.8c-1,0.7-1.7,0.9-2.5,0.9c-1.6,0-2.7-1.2-2.7-3.1c0-1.8,1.2-3,3-3
			c0.8,0,1.5,0.2,2.4,0.6v-1.7c-0.6-0.3-1.7-0.5-2.7-0.5c-2.7,0-4.5,1.8-4.5,4.5c0,3,1.7,4.8,4.4,4.8c1,0,1.7-0.2,2.6-0.6V93.8"/>
		<path id="path95" class="st0" d="M537.8,87.2h1.8v9h-1.8V87.2z"/>
		<g id="g97">
			<g>
				<g>
					<defs>
						<polyline id="SVGID_3_" points="408,127.2 408,83.5 555.8,83.5 555.8,127.2 						"/>
					</defs>
					<clipPath id="SVGID_4_">
						<use xlink:href="#SVGID_3_"  style="overflow:visible;"/>
					</clipPath>
					<g id="g99" class="st2">
						<path id="path105" class="st0" d="M539.6,99.4c0.2-0.4-0.1-1-0.7-1.4c-0.5-0.3-1.1-0.2-1.3,0.2c-0.2,0.4,0.1,1,0.7,1.4
							C538.9,99.9,539.5,99.8,539.6,99.4"/>
						<path id="path107" class="st0" d="M460.7,98.7c-0.3,0-0.4-0.1-0.6-0.2c-0.1-0.1-0.1-0.1-0.1-0.2l-1.6-6
							c-0.4-2.1-3-4.2-6.3-4.2h-4.7l0.8,3.1h3c0.3,0,0.5,0.1,0.7,0.3c0.1,0.1,0.2,0.2,0.2,0.4l1.2,5.2c0.4,2.1,2.6,4.4,6,4.4h4.8
							l-0.6-2.8C463.5,98.7,460.7,98.7,460.7,98.7z M461.8,95l0.5,1.9h4.9c0.6,2.8,0.1,5.4-1.6,7.1c-3.5,3.5-10.7,2.3-16.1-2.9
							c-0.8-0.8-1.6-1.7-2.2-2.5h2.9l-0.7-1.9H446c-0.3-0.6-0.6-1.2-0.9-1.8h4.2l-0.7-1.9h-4c-0.7-3-0.3-5.7,1.5-7.5
							c3.4-3.4,10.6-2.2,16,2.9c0.9,0.9,1.7,1.9,2.4,2.9h-3.8l0.6,1.9h4.4c0.3,0.6,0.6,1.2,0.9,1.8H461.8"/>
					</g>
				</g>
			</g>
		</g>
	</g>
</g>
</svg>
