<svg xmlns="http://www.w3.org/2000/svg" width="103.66" height="61.33" viewBox="0 0 103.66 61.33"><title>vaste-rijsimulator</title><path d="M121,10.16a2.68,2.68,0,0,0-2-.83H46a2.83,2.83,0,0,0-2.79,2.79v8.36h-7a7.57,7.57,0,0,0-4.75,2l-8.63,8.63a5.92,5.92,0,0,0-1,1.31,7.92,7.92,0,0,0-.61,1.33A7.24,7.24,0,0,0,21,35.32q-.09,1-.11,1.5t0,1.66q0,1.18,0,1.52V53.94a2.83,2.83,0,0,0-2.79,2.79,3.51,3.51,0,0,0,.17,1.15,1.65,1.65,0,0,0,.59.81q.41.3.72.5a2.39,2.39,0,0,0,1,.26l1,.09q.26,0,1.11,0l1,0h2.79A11.15,11.15,0,0,0,37.68,70.67,11.15,11.15,0,0,0,48.83,59.52H94a11.15,11.15,0,0,0,22.3,0l1,0q.85,0,1.11,0l1-.09a2.39,2.39,0,0,0,1-.26q.3-.2.72-.5a1.65,1.65,0,0,0,.59-.81,3.51,3.51,0,0,0,.17-1.15V12.12A2.68,2.68,0,0,0,121,10.16ZM41.6,63.44a5.47,5.47,0,1,1,1.66-3.92A5.36,5.36,0,0,1,41.6,63.44Zm1.66-26.22H26.53V35.91a1.3,1.3,0,0,1,.39-1l8.49-8.49a1.3,1.3,0,0,1,1-.39h6.88ZM97.49,24.76,90.32,45.41a2.19,2.19,0,0,1-2.06,1.47H57.42a2.19,2.19,0,0,1-1.55-3.73l12.4-12.4-2.11-2.11A2,2,0,0,1,69,25.79l7.32,7.32A2,2,0,1,1,73.48,36l-2.11-2.11L62.7,42.51h24l6.66-19.18a2.19,2.19,0,0,1,4.13,1.43ZM109,63.44a5.47,5.47,0,1,1,1.66-3.92A5.36,5.36,0,0,1,109,63.44Z" transform="translate(-18.17 -9.33)" style="fill:#fff"/></svg>