<?xml version="1.0" encoding="utf-8"?>
<!-- Generator: Adobe Illustrator 19.2.1, SVG Export Plug-In . SVG Version: 6.00 Build 0)  -->
<svg version="1.1" id="Layer_1" xmlns="http://www.w3.org/2000/svg" xmlns:xlink="http://www.w3.org/1999/xlink" x="0px" y="0px"
	 viewBox="0 0 257.4 55.2" style="enable-background:new 0 0 257.4 55.2;" xml:space="preserve">
<style type="text/css">
	.st0{fill:#FFFFFF;}
	.st1{fill:none;}
	.st2{fill:#8DB170;}
	.st3{fill:#46A2D4;}
	.st4{fill:#459659;}
	.st5{fill:#314999;}
</style>
<path class="st0" d="M156.4,37.4h4.9c4.3,0.1,6.5,2.4,6.5,7c0,4.7-2.2,7-6.5,7h-4.9V37.4z M157.8,50.3h2.9c4,0,5.8-1.7,5.8-5.9
	s-1.8-5.9-5.8-5.9h-2.9V50.3z"/>
<path class="st0" d="M169.8,44.4c0.1-2.4,1.8-3.4,4.1-3.4c1.8,0,3.8,0.5,3.8,3.3v5.4c0,0.5,0.2,0.8,0.7,0.8c0.1,0,0.3,0,0.4-0.1v1
	c-0.3,0.1-0.5,0.1-0.8,0.1c-1.3,0-1.5-0.7-1.5-1.8l0,0c-0.9,1.3-1.7,2.1-3.7,2.1c-1.9,0-3.4-0.9-3.4-3c0-2.8,2.8-3,5.5-3.3
	c1-0.1,1.6-0.3,1.6-1.4c0-1.7-1.2-2.1-2.7-2.1c-1.6,0-2.7,0.7-2.7,2.4C171.1,44.4,169.8,44.4,169.8,44.4z M176.4,45.9L176.4,45.9
	c-0.2,0.3-0.8,0.4-1.1,0.5c-2.1,0.4-4.7,0.4-4.7,2.3c0,1.2,1.1,2,2.3,2c1.9,0,3.6-1.2,3.6-3.2v-1.6H176.4z"/>
<path class="st0" d="M180.4,37.4h1.2v2h-1.2V37.4z M180.4,41.3h1.2v10.2h-1.2V41.3z"/>
<path class="st0" d="M189.5,41.3h1.3l3.4,8.7l3.1-8.7h1.2L194.1,53c-0.7,1.7-1.1,2.2-2.7,2.2c-0.5,0-0.7,0-0.9-0.1v-1
	c0.3,0.1,0.6,0.1,0.8,0.1c1.1,0,1.4-0.7,1.8-1.6l0.4-1.2L189.5,41.3z"/>
<polygon class="st0" points="205.2,37.4 214.2,37.4 214.2,38.5 206.6,38.5 206.6,43.6 213.3,43.6 213.3,44.8 206.6,44.8 206.6,51.5 
	205.2,51.5 "/>
<path class="st0" d="M224.9,46.4c0,2.9-1.7,5.4-4.8,5.4s-4.8-2.5-4.8-5.4s1.7-5.4,4.8-5.4S224.9,43.4,224.9,46.4 M216.5,46.4
	c0,2.2,1.2,4.3,3.6,4.3s3.6-2.2,3.6-4.3c0-2.2-1.2-4.3-3.6-4.3S216.5,44.2,216.5,46.4"/>
<path class="st0" d="M236.1,46.4c0,2.9-1.7,5.4-4.8,5.4s-4.8-2.5-4.8-5.4s1.7-5.4,4.8-5.4S236.1,43.4,236.1,46.4 M227.7,46.4
	c0,2.2,1.2,4.3,3.6,4.3c2.4,0,3.6-2.2,3.6-4.3c0-2.2-1.2-4.3-3.6-4.3C228.9,42,227.7,44.2,227.7,46.4"/>
<path class="st0" d="M247.1,51.5H246v-1.9l0,0c-0.5,1.3-2.2,2.2-3.6,2.2c-3.1,0-4.6-2.5-4.6-5.4s1.5-5.4,4.6-5.4
	c1.5,0,3,0.8,3.5,2.2l0,0v-5.8h1.2L247.1,51.5L247.1,51.5z M242.3,50.7c2.6,0,3.6-2.2,3.6-4.3s-0.9-4.3-3.6-4.3
	c-2.4,0-3.3,2.2-3.3,4.3C238.9,48.5,239.9,50.7,242.3,50.7"/>
<path class="st0" d="M255.8,44.3c-0.1-1.5-1.2-2.2-2.7-2.2c-1.1,0-2.4,0.4-2.4,1.8c0,1.1,1.2,1.5,2.1,1.7l1.7,0.4
	c1.4,0.2,2.9,1,2.9,2.8c0,2.2-2.2,3.1-4.1,3.1c-2.4,0-4-1.1-4.2-3.6h1.2c0.1,1.7,1.3,2.5,3,2.5c1.2,0,2.8-0.5,2.8-1.9
	c0-1.2-1.1-1.6-2.2-1.9l-1.6-0.4c-1.6-0.4-2.8-1-2.8-2.7c0-2.1,2-2.9,3.8-2.9c2.1,0,3.6,1.1,3.7,3.3C257,44.3,255.8,44.3,255.8,44.3
	z"/>
<path class="st0" d="M180.2,19.9L180.2,19.9c0,0.9,0.3,1.6,0.8,2.4c1.1,1.8,2.9,1.9,3.6,1.9c2.1,0,3-1.1,3.5-1.8h5.8l0,0
	c-2.2,6-7.4,6.4-9.6,6.4c-1.8-0.1-3.1-0.4-3.7-0.7c-4.1-1.5-6.2-5.5-6.2-9.7c0-1.1,0.1-4.4,2.2-7.2c1.1-1.4,3.4-3.6,7.8-3.6
	c0.7,0,2.3,0.1,4.1,0.8c2,0.9,4.5,2.8,5.4,7.6l0,0c0.1,0.5,0.3,1.8,0.3,3.2c0,0.1,0,0.2,0,0.3c0,0.2-0.2,0.4-0.4,0.4
	C193.8,19.9,180.2,19.9,180.2,19.9z M188.2,15.9L188.2,15.9c0-0.1,0-0.5-0.1-0.9c-0.4-1.8-2-2.8-3.7-2.8c-1.8,0-3.3,1.1-3.9,2.8
	c-0.1,0.2-0.1,0.3-0.1,0.5c-0.1,0.3,0.1,0.5,0.4,0.5L188.2,15.9z"/>
<path class="st0" d="M171.4,0.9L171.4,0.9v27.3h-5.6c0,0,0-0.6,0-1.1s-0.3-0.4-0.5-0.2c-0.2,0.3-0.4,0.5-0.6,0.7
	c-1.5,1.3-3.7,1.3-4.3,1.3s-2.2,0-3.7-0.7c-2.2-1.1-5.1-3.9-5.1-9.6c0-0.7,0.1-2.6,0.7-4.5c1.2-3.7,4.1-6.2,8.1-6.2
	c2.1,0,3.6,0.8,4.3,1.3c0.4,0.3,0.8,0.6,0.8-0.2V4.6V4.3c0-1.2,0.6-3.2,3.7-3.2h2.2L171.4,0.9L171.4,0.9z M157.4,18.4L157.4,18.4
	c0,2.5,0.7,3.8,1.5,4.7c0.7,0.9,1.6,1.2,2.7,1.2c1.1,0,1.9-0.4,2.2-0.7c1.2-0.9,2-2.4,2-5.4c0-0.5,0.1-3.3-1.6-4.8
	c-0.4-0.3-1.2-0.9-2.4-0.9C159.6,12.6,157.4,14,157.4,18.4"/>
<path class="st0" d="M84.1,7.9h-2.5c-6,0-9.4,3.7-9.4,10.2v10.4l0,0H76c1.3,0,2-0.8,2-1.8v-8.5c0-3.9,1.5-5.2,4.1-5.2h1.2L84.1,7.9
	L84.1,7.9"/>
<path class="st0" d="M72.5,1.3L72.5,1.3H70h-3.2l0,0l-1,3.4l0,0c0,0.1,0,0.1,0,0.1l-0.1,0.5l-0.5,1.6l-2.4,8.5v0.1l-1.5,5.4l0,0
	l-0.8-2.4L55.7,1.3l0,0h-3.3h-2.5l0,0h-0.2c-0.3,0-0.5,0.3-0.4,0.5l6.8,20.3l1.3,3.8c0.5,1.6,1.5,3,3.9,3s3.4-1.4,3.9-3l0.4-1.2
	l7.7-22.9c0.1-0.3-0.1-0.5-0.4-0.5C72.9,1.3,72.5,1.3,72.5,1.3z"/>
<line class="st1" x1="57.5" y1="25.4" x2="56.7" y2="22.9"/>
<path class="st0" d="M230.8,7.3c-2.3,0-4.5,1-5.6,2.4V9.4v-5c0,0,0,0,0-0.1l0,0V4c0-0.4-0.1-0.9-0.3-1.4c-0.4-0.9-1.4-1.7-3.3-1.7
	h-2.1l0,0l0,0l0,0v6.8v0.7v4.5v3.5v0.2v7.6v4.2l0,0h5.8l0,0V16.6c0-2.7,1.5-4.3,3.8-4.3c2.8,0,3.1,1.9,3.1,3.6v12.5l0,0h5.8l0,0
	V14.3C238,10,235.2,7.3,230.8,7.3"/>
<path class="st0" d="M257.4,1.2L257.4,1.2h-2.1c-1.9,0-2.9,0.8-3.3,1.7l0,0c-0.2,0.5-0.3,1-0.3,1.4v0.3l0,0c0,0.1,0,0.1,0,0.1v5
	v11.8v6.8l0,0l0,0l0,0l0,0h2.1c1.9,0,2.9-0.8,3.3-1.7l0,0c0.2-0.5,0.3-1,0.3-1.4v-0.3l0,0c0-0.1,0-0.1,0-0.1v-5V8L257.4,1.2
	L257.4,1.2L257.4,1.2z"/>
<path class="st0" d="M244.8,6.2c1.8,0,3.3-1.4,3.3-3.1c0-1.8-1.5-3.1-3.3-3.1s-3.3,1.3-3.3,3.1C241.5,4.8,243,6.2,244.8,6.2"/>
<polygon class="st0" points="247.7,9 242,9 242,9.7 242,27.3 242,28.4 247.7,28.4 247.7,27.7 247.7,10.1 "/>
<path class="st0" d="M148.7,27.1V7.8h-5.6v1.9c0,0.1-0.1,0.2-0.2,0.1c-1.2-1.6-3-2.5-5.4-2.5c-2.3,0-4.5,0.9-6,2.7
	c-1.7,1.9-2.6,4.6-2.6,8c0,6.6,3.4,10.7,8.8,10.7c2.4,0,3.8-0.9,4.7-1.9c0.1-0.2,0.4-0.1,0.4,0.2v0.9c0,3-0.6,4.8-3.8,4.9
	c-1.9,0.1-4-0.5-5.4-0.9l-1.8,4.5c1.8,0.7,4.2,1.3,6.7,1.3C148.9,37.5,148.7,30.1,148.7,27.1 M138.8,23.5c-2.8,0-3.8-2.7-3.8-5.3
	c0-3.6,1.4-5.8,3.8-5.8c1.9,0,4.2,1.5,4.2,5.6C142.9,22.5,140.6,23.5,138.8,23.5"/>
<path class="st0" d="M125.9,7.8L125.9,7.8h-2.2c-1.2,0-2,0.3-2.6,0.8c-0.4,0.3-0.6,0.6-0.8,1l0,0c-0.2,0.5-0.3,1-0.3,1.4v0.3l0,0
	c0,0.1,0,0.1,0,0.1v5.1l0,0v2.8v0.2l0,0v0.1c0,3.9-2.8,4.2-3.7,4.2c-2.1,0-3.1-1.1-3.1-3.4V7.8l0,0h-5.7l0,0v13.5
	c0,4.9,2.6,7.7,7,7.7c2.3,0,4.3-0.9,5.6-2.5c0.1-0.1,0.1-0.2,0.2-0.3v2.2l0,0h5.6l0,0v-4.7v-0.2V20v-4.6v-0.7v-0.1V7.8L125.9,7.8
	L125.9,7.8z"/>
<path class="st0" d="M208.5,7.3c-2.3,0-4.3,0.9-5.6,2.5l0,0c-0.1,0.1-0.1,0.2-0.2,0.3V7.9l0,0h-5.6l0,0v4.7v0.2v3.4v4.6v0.7v0.1v6.9
	l0,0l0,0l0,0h2.1c1.2,0,2-0.3,2.5-0.8c0.4-0.3,0.6-0.6,0.8-1l0,0l0,0c0.2-0.5,0.3-1,0.3-1.4V25l0,0c0-0.1,0-0.1,0-0.1v-5v-3.1v-0.1
	c0-3.9,2.8-4.2,3.7-4.2c2.1,0,3.1,1.1,3.1,3.4v12.7l0,0h5.8l0,0V14.9C215.6,10.1,213,7.3,208.5,7.3"/>
<path class="st0" d="M90.7,19.9L90.7,19.9c0,0.9,0.3,1.6,0.8,2.4c1.1,1.8,2.9,1.9,3.6,1.9c2.1,0,3-1.1,3.5-1.8h5.8l0,0
	c-2.2,6-7.4,6.4-9.6,6.4c-1.8-0.1-3.1-0.4-3.7-0.7c-4.1-1.5-6.2-5.5-6.2-9.7c0-1.1,0.1-4.4,2.2-7.2c1.1-1.4,3.4-3.6,7.8-3.6
	c0.7,0,2.3,0.1,4.1,0.8c2,0.9,4.5,2.8,5.4,7.6l0,0c0.1,0.5,0.3,1.8,0.3,3.2c0,0.1,0,0.2,0,0.3c0,0.2-0.2,0.4-0.4,0.4
	C104.3,19.9,90.7,19.9,90.7,19.9z M98.6,15.9L98.6,15.9c0-0.1,0-0.5-0.1-0.9c-0.4-1.8-2-2.8-3.7-2.8c-1.8,0-3.3,1.1-3.9,2.8
	c-0.1,0.2-0.1,0.3-0.1,0.5c-0.1,0.3,0.1,0.5,0.4,0.5L98.6,15.9z"/>
<path class="st2" d="M38.8,22.3c0-0.3-0.1-0.5-0.1-0.6l0,0v-0.1l-0.3-1c0,0,0-0.1-0.1-0.1c0,0,0-0.1-0.1-0.1c0-0.1-0.1-0.1-0.1-0.2
	c0,0-0.3-0.6-1-0.8c-0.1-0.2-0.4-0.2-0.6-0.2c-0.3,0-0.5,0.1-0.5,0.1l-1,0.3c-0.6,0.2-0.9,0.1-1.1,0c-0.2-0.2-0.1-0.7,0-1
	c0.3-1.1,0.5-2.9,0.5-4.2c0-3.4-1.2-6.4-3.5-8.7c-2.3-2.4-5.3-3.9-8.5-4.2c0,0-0.8-0.1-1.7-0.1c-0.9,0-1.8,0.1-1.8,0.1
	c-3.1,0.3-6.2,1.8-8.5,4.2C8.1,8,6.9,11.1,6.9,14.4c0,1.3,0.2,3,0.5,4.2c0.1,0.3,0.2,0.8,0,1s-0.4,0.3-1.1,0l-0.9-0.4
	c0,0-0.2-0.1-0.5-0.1c-0.2,0-0.4,0.1-0.7,0.2c-0.6,0.3-0.9,0.8-1,0.8c0,0.1-0.1,0.1-0.1,0.2c0,0,0,0.1-0.1,0.1c0,0,0,0.1-0.1,0.1
	l-0.3,1v0.1l0,0c0,0-0.1,0.3-0.1,0.6l0,0c0,0,0,0,0,0.1s0,0.1,0,0.2s0,0.2,0.1,0.4c0.2,0.6,0.6,0.9,0.7,0.9l0,0
	c0.2,0.1,0.4,0.2,0.6,0.3L6.3,25l5.8,2.1l5.8,2c0.8,0.3,0.9-0.4,0.9-0.8V24v-0.3c0-0.5-0.3-1-0.8-1.1c-0.1,0-0.1,0-0.2-0.1h-0.1
	c-0.5-0.2-1-0.3-1.4-0.6c-2.8-1.5-4.7-4.4-4.7-7.8c0-4.8,4.3-8.7,9.1-8.8c4.8,0.1,9,4,9,8.8c0,3.4-1.9,6.3-4.7,7.8
	c-0.5,0.2-0.9,0.4-1.4,0.6h-0.1c-0.1,0-0.1,0-0.2,0.1c-0.4,0.2-0.8,0.6-0.8,1.1V24v4.3c0,0.3,0.1,1,0.9,0.8l5.8-2L35,25l2.5-0.8
	c0.2-0.1,0.4-0.2,0.6-0.3l0,0c0,0,0.4-0.3,0.7-0.9c0-0.1,0.1-0.3,0.1-0.4C38.8,22.5,38.8,22.4,38.8,22.3
	C38.8,22.4,38.9,22.3,38.8,22.3C38.9,22.3,38.8,22.3,38.8,22.3"/>
<path class="st3" d="M30.9,49.6c-0.2,0.7-0.6,1-0.6,1l-0.1,0.1c0,0-0.8,0.7-0.9,0.7l-0.1,0.1c0,0-0.1,0-0.1,0.1
	c-0.1,0-0.1,0.1-0.2,0.1s-0.6,0.3-1.2,0.2c-0.8-0.1-1.1-0.6-1.1-0.6l-4.1-5.7c-0.6-0.8-1.1-1.2-1.7-1.2s-1.1,0.4-1.7,1.2l-4.2,5.6
	c0,0-0.3,0.5-1.1,0.6c-0.7,0.1-1.2-0.1-1.2-0.2c-0.1,0-0.1-0.1-0.2-0.1c0,0-0.1,0-0.1-0.1l-0.1-0.1l-0.9-0.7l-0.1-0.1
	c0,0-0.5-0.4-0.6-1s0-1.1,0-1.1l0,0c0.1-0.2,0.2-0.4,0.3-0.6l5.7-7.6l2.3-3.1c0.3-0.3,0.6-0.6,1-0.7l0,0c0,0,0,0,0.1,0
	c0,0,0,0,0.1,0c0.5-0.1,0.9-0.1,1.4,0l0,0l0,0c0.4,0.1,0.8,0.4,1,0.8l2.3,3.1l5.7,7.6c0.1,0.2,0.2,0.4,0.3,0.6l0,0
	C30.9,48.5,31,49,30.9,49.6"/>
<path class="st4" d="M40.3,27.2c0.6,0.3,0.8,0.8,0.8,0.9c0,0,0,0.1,0.1,0.1l0.4,1v0.1v0.1c0,0.1,0,0.1,0,0.2s0.1,0.6-0.2,1.2
	c-0.3,0.7-0.8,0.9-0.9,0.9l-1.4,0.5l-1.8,0.7l-3.2,1.3c-0.9,0.3-1.4,0.7-1.6,1.3c-0.2,0.6,0,1.2,0.6,2l2.1,2.8l1.1,1.5l0.9,1.2
	c0,0.1,0.3,0.4,0.3,1.2c-0.1,0.7-0.5,1.1-0.5,1.1l-0.1,0.1l-0.1,0.1l-0.1,0.1l-0.9,0.6c0,0-0.1,0-0.1,0.1c0,0-0.5,0.3-1.2,0.3
	c-0.6,0-1-0.4-1.1-0.4l0,0c-0.2-0.1-0.3-0.3-0.5-0.5l-5.6-7.5L25,35.1c-0.3-0.3-0.4-0.8-0.4-1.2l0,0c0,0,0,0,0-0.1c0,0,0,0,0-0.1
	c0-0.5,0.1-0.9,0.4-1.3l0,0l0,0c0.2-0.3,0.6-0.6,1-0.8l12.5-4.5c0.2-0.1,0.4-0.1,0.6-0.1l0,0C39.2,27,39.7,26.9,40.3,27.2"/>
<path class="st5" d="M1.3,27.2c-0.6,0.3-0.8,0.8-0.8,0.9c0,0,0,0.1-0.1,0.1l-0.4,1v0.1v0.1c0,0.1,0,0.1,0,0.2s-0.1,0.6,0.2,1.2
	c0.3,0.7,0.8,0.9,0.9,0.9l1.4,0.5l1.8,0.7l3.2,1.2c0.9,0.3,1.4,0.7,1.6,1.3c0.2,0.6,0,1.2-0.6,2l-2.2,2.8l-1.1,1.5l-0.9,1.2
	C4.3,43,4,43.3,4,44.1c0.1,0.7,0.5,1.1,0.5,1.1l0.1,0.1l0.1,0.1l0.1,0.1l0.9,0.6c0,0,0.1,0,0.1,0.1c0,0,0.5,0.3,1.2,0.3
	c0.6,0,1-0.4,1.1-0.4l0,0c0.2-0.1,0.3-0.3,0.5-0.5l5.7-7.6l2.3-3.1c0.3-0.3,0.4-0.8,0.4-1.2l0,0c0,0,0,0,0-0.1c0,0,0,0,0-0.1
	c0-0.5-0.1-0.9-0.4-1.3l0,0l0,0c-0.2-0.3-0.6-0.6-1-0.8L3.1,26.8c-0.2-0.1-0.4-0.1-0.6-0.1l0,0C2.3,27,1.8,26.9,1.3,27.2"/>
<path class="st0" d="M188.5,41.2c-1.4,0.2-2.5,1.1-3.1,2.5l0,0v-2.4h-1.1v10.2h1.2v-5.4c0-2,1.3-3.5,3.3-3.6h0.2L188.5,41.2z"/>
</svg>
