<svg xmlns="http://www.w3.org/2000/svg" width="187" height="28" viewBox="0 0 187 28"><g><path d="M98.92.42A1.76,1.76,0,0,1,99.68,0c.25,0,.61-.05.71.25l.31.05a3.55,3.55,0,0,1,.12.86c0,2.73,0,5.45,0,8.18a24.6,24.6,0,0,0,.44,2.42,14.38,14.38,0,0,1,.12,3.84,7.28,7.28,0,0,0-.2,1.09,13.27,13.27,0,0,1-2,4.93l-.11.22a8.29,8.29,0,0,0-.58.77c-.24.27-.44.7-.87.67l.28.09a20.74,20.74,0,0,1-2.48,2.11,14.28,14.28,0,0,1-16,.2,15.14,15.14,0,0,1-3.21-2.84,14.19,14.19,0,0,1-2.13-3.6,8.82,8.82,0,0,1-.76-2.83c0,.19,0,.38-.06.57q-.15-1.71-.23-3.43a15.6,15.6,0,0,1,.35-2.63,13.69,13.69,0,0,1,2.42-5.24c.35-.49.8-.89,1.13-1.4.59-.42,1-1,1.65-1.39A14.31,14.31,0,0,1,83.87.39a6.29,6.29,0,0,0,.9-.21,19.59,19.59,0,0,1,4.16-.1A16.94,16.94,0,0,1,96.32,3c.28-.3.58-.6.89-.88.56-.57,1.17-1.1,1.71-1.7M83.83,6.24l-.59.22v.09c-.25.11-.5.24-.74.36a11.37,11.37,0,0,0-1.72,1.52A8.2,8.2,0,0,0,79,11.52a7.89,7.89,0,0,0-.35,2.16,3.21,3.21,0,0,0,0,1.32,8.38,8.38,0,0,0,2.9,5.4,8.08,8.08,0,0,0,4,1.89l.08.08a8.58,8.58,0,0,0,3-.05c.3,0,.61-.07.92-.1v-.14a5.31,5.31,0,0,0,2-.75,9.32,9.32,0,0,0,2.27-1.87,5,5,0,0,0,.71-1,5.91,5.91,0,0,0,1-2.3c0,.1,0,.2,0,.3a11.39,11.39,0,0,1,.25-1.23,8.51,8.51,0,0,0-.29-3.61q-.1-.34-.19-.68c-1.52,0-3,0-4.55,0a1,1,0,0,1-1-1,1.45,1.45,0,0,1,.5-1c.53-.52,1.05-1,1.59-1.56.12-.12.28-.24.23-.43a13,13,0,0,0-1.39-.75,12,12,0,0,0-2.2-.59,14.83,14.83,0,0,0-1.95,0A9,9,0,0,0,83.83,6.24Z" fill="#ed1163"/><g fill="#220240"><path d="m163.93 1.53c1.83 0 3.66 0 5.48 0q2.14 6.69 4.3 13.37a56.68 56.68 0 0 1 1.81 6.86 50.41 50.41 0 0 1 1.33 -5.48l4.77-14.75c1.79 0 3.58 0 5.38 0v.29c-2.82 8.25-5.69 16.48-8.52 24.72-2 0-4 0-5.94 0-2.85-8.35-5.76-16.67-8.61-25.01"/><path d="M0,1.65H7.81a20.57,20.57,0,0,1,6.35.74,5.75,5.75,0,0,1,3.3,2.38,6.73,6.73,0,0,1,.72,4.33,5,5,0,0,1-2.32,3.73,7.33,7.33,0,0,1-1.61.59A7.22,7.22,0,0,1,17.43,15a6.48,6.48,0,0,1,1.45,5,6.27,6.27,0,0,1-2.11,4.39,10.3,10.3,0,0,1-6.51,2.22H0C0,18.33,0,10,0,1.65M5.44,6c0,1.84,0,3.69,0,5.53a40.71,40.71,0,0,0,4.69-.13A2.73,2.73,0,0,0,12.5,9.85a2.86,2.86,0,0,0-.42-2.91A4.5,4.5,0,0,0,9.41,6C8.09,6,6.76,6,5.44,6m0,9.75c0,2.16,0,4.32,0,6.48,1.45,0,2.9,0,4.35,0a4.54,4.54,0,0,0,2.49-.85,2.84,2.84,0,0,0,1-2,2.93,2.93,0,0,0-.83-2.62,5,5,0,0,0-3-1C8.08,15.7,6.76,15.72,5.43,15.73Z"/><path d="M23.76,1.65c1.81,0,3.61,0,5.41,0,0,5.17,0,10.34,0,15.51a6.67,6.67,0,0,0,1,3.84,4.26,4.26,0,0,0,3.12,1.51,6.56,6.56,0,0,0,4.09-.73A4,4,0,0,0,39,19.27a11.18,11.18,0,0,0,.25-2.83c0-4.93,0-9.86,0-14.79,1.8,0,3.6,0,5.4,0q0,8.18,0,16.36a8.88,8.88,0,0,1-1.93,5.66A10,10,0,0,1,35.86,27,16,16,0,0,1,30,26.5,8.57,8.57,0,0,1,25.16,23a9.43,9.43,0,0,1-1.4-5.38C23.76,12.32,23.77,7,23.76,1.65Z"/><path d="M50.74,1.65h8.55c2.36.12,4.87.49,6.77,2A6.6,6.6,0,0,1,68.35,9,6.52,6.52,0,0,1,67,13.23a8.43,8.43,0,0,1-3.36,2.53c2.48,3.64,4.95,7.29,7.47,10.91-2,0-4,0-6,0-2-3.2-4-6.37-6-9.59-1,0-1.91,0-2.87,0q0,4.81,0,9.62c-1.81,0-3.61,0-5.42,0,0-8.34,0-16.68,0-25M56.18,6q0,3.36,0,6.73a28.31,28.31,0,0,0,3.35-.11A3.86,3.86,0,0,0,62.46,11a3.73,3.73,0,0,0,.09-3.32,3.06,3.06,0,0,0-2.18-1.46A18.81,18.81,0,0,0,56.18,6Z"/><path d="M120.53,1.65H128a16.84,16.84,0,0,1,5.55.75,6.7,6.7,0,0,1,3.33,2.29,7.18,7.18,0,0,1,1.28,4.54,6.57,6.57,0,0,1-2.15,4.9,9.17,9.17,0,0,1-2.55,1.64q3.71,5.47,7.46,10.92c-2,0-4,0-6,0-2-3.21-4-6.4-6-9.61H126q0,4.81,0,9.61-2.72,0-5.44,0c0-8.34,0-16.67,0-25M126,6c0,2.24,0,4.48,0,6.73a27.74,27.74,0,0,0,3.26-.1,4.37,4.37,0,0,0,2.66-1.11,3.46,3.46,0,0,0,.7-3.13A2.57,2.57,0,0,0,131,6.52,13.89,13.89,0,0,0,126,6Z"/><path d="m140.75 1.66c1.83 0 3.66 0 5.49 0 1.57 4.93 3.17 9.86 4.74 14.79.55 1.75 1 3.55 1.36 5.34a54.56 54.56 0 0 1 1.76 -6.72l4.34-13.42h5.49q-2.65 7.66-5.3 15.33c-1.13 3.23-2.21 6.48-3.37 9.71-2 0-3.93 0-5.9 0q-4.28-12.53-8.61-25.03"/></g></g></svg>