<svg xmlns="http://www.w3.org/2000/svg" width="13" height="13" viewBox="0 0 13 13"><path fill="#ed1163" d="M10.93,8.13a1,1,0,0,0-1.52,0L8.35,9.2a0.21,0.21,0,0,1-.29.05C7.82,9.13,7.58,9,7.36,8.89A11,11,0,0,1,4.69,6.46a6.31,6.31,0,0,1-1-1.53,0.22,0.22,0,0,1,.05-0.28C4.15,4.31,4.5,4,4.85,3.6A1,1,0,0,0,4.84,2L4,1.2,3.15,0.34a1,1,0,0,0-1.52,0C1.26,0.7.92,1.06,0.56,1.41A1.73,1.73,0,0,0,0,2.58,5,5,0,0,0,.39,4.71a13,13,0,0,0,2.3,3.83,14.24,14.24,0,0,0,4.72,3.69A6.82,6.82,0,0,0,10,13a1.91,1.91,0,0,0,1.64-.63c0.31-.34.65-0.65,1-1a1,1,0,0,0,0-1.55Z"/></svg>